<?xml version="1.0" encoding="UTF-8" standalone="no"?>
<!-- Created with Inkscape (http://www.inkscape.org/) -->

<svg
   xmlns:dc="http://purl.org/dc/elements/1.1/"
   xmlns:cc="http://creativecommons.org/ns#"
   xmlns:rdf="http://www.w3.org/1999/02/22-rdf-syntax-ns#"
   xmlns:svg="http://www.w3.org/2000/svg"
   xmlns="http://www.w3.org/2000/svg"
   xmlns:sodipodi="http://sodipodi.sourceforge.net/DTD/sodipodi-0.dtd"
   xmlns:inkscape="http://www.inkscape.org/namespaces/inkscape"
   width="1500"
   height="1500"
   viewBox="0 0 396.87499 396.87501"
   version="1.1"
   id="svg8"
   inkscape:version="0.92.3 (2405546, 2018-03-11)"
   sodipodi:docname="photobooth.svg">
  <title
     id="title10">photobooth</title>
  <defs
     id="defs2" />
  <sodipodi:namedview
     id="base"
     pagecolor="#ffffff"
     bordercolor="#666666"
     borderopacity="1.0"
     inkscape:pageopacity="0.0"
     inkscape:pageshadow="2"
     inkscape:zoom="0.32"
     inkscape:cx="1141.5845"
     inkscape:cy="786.36364"
     inkscape:document-units="mm"
     inkscape:current-layer="layer1"
     showgrid="false"
     units="px"
     inkscape:window-width="1373"
     inkscape:window-height="845"
     inkscape:window-x="67"
     inkscape:window-y="27"
     inkscape:window-maximized="1" />
  <metadata
     id="metadata5">
    <rdf:RDF>
      <cc:Work
         rdf:about="">
        <dc:format>image/svg+xml</dc:format>
        <dc:type
           rdf:resource="http://purl.org/dc/dcmitype/StillImage" />
        <dc:title>photobooth</dc:title>
        <cc:license
           rdf:resource="http://creativecommons.org/licenses/by/4.0/" />
        <dc:creator>
          <cc:Agent>
            <dc:title>jarett rude</dc:title>
          </cc:Agent>
        </dc:creator>
      </cc:Work>
      <cc:License
         rdf:about="http://creativecommons.org/licenses/by/4.0/">
        <cc:permits
           rdf:resource="http://creativecommons.org/ns#Reproduction" />
        <cc:permits
           rdf:resource="http://creativecommons.org/ns#Distribution" />
        <cc:requires
           rdf:resource="http://creativecommons.org/ns#Notice" />
        <cc:requires
           rdf:resource="http://creativecommons.org/ns#Attribution" />
        <cc:permits
           rdf:resource="http://creativecommons.org/ns#DerivativeWorks" />
      </cc:License>
    </rdf:RDF>
  </metadata>
  <g
     inkscape:label="booth"
     inkscape:groupmode="layer"
     id="layer1"
     transform="translate(0,99.875017)"
     style="display:inline">
    <g
       id="g835"
       inkscape:export-xdpi="72"
       inkscape:export-ydpi="72">
      <rect
         inkscape:label="booth"
         y="-99.875015"
         x="0"
         height="396.875"
         width="396.875"
         id="booth"
         style="fill:#669db3;fill-opacity:1;stroke:none;stroke-width:0.52916664">
        <title
           id="title823">booth</title>
      </rect>
      <circle
         r="59.53125"
         inkscape:label="camera"
         cy="-5.1190205"
         cx="198.43747"
         id="camera"
         style="fill:#2e535e;fill-opacity:1;stroke:none;stroke-width:0;stroke-miterlimit:4;stroke-dasharray:none;stroke-opacity:1">
        <title
           id="title831">camera</title>
      </circle>
      <circle
         r="13.229167"
         inkscape:label="button"
         cy="39.533615"
         cx="298.91217"
         id="button"
         style="fill:#2e535e;fill-opacity:1;stroke:none;stroke-width:2.27541661;stroke-linejoin:round;stroke-miterlimit:4;stroke-dasharray:none;stroke-opacity:1" />
      <rect
         ry="21.35087"
         inkscape:label="screen"
         y="73.751938"
         x="60.284798"
         height="180.85443"
         width="276.30539"
         id="screen"
         style="fill:#2e535e;fill-opacity:1;stroke:none;stroke-width:0.52916664">
        <title
           id="title827">screen</title>
      </rect>
      <g
         transform="matrix(2,0,0,2,-168.29509,0.65626326)"
         id="family"
         inkscape:label="family"
         style="fill:#e9c6af">
        <path
           style="fill:#ff4f58;fill-opacity:1;stroke-width:0.0511711"
           id="path2"
           d="m 155.07207,73.737525 c -1.07934,2.631346 -0.74389,1.992238 -2.2944,3.963106 -4.99973,6.355369 -2.66363,2.665802 -1.38659,9.648266 0.21888,1.196878 -5.01655,3.01641 -5.26797,3.585416 -1.30516,2.95333 -1.04257,3.94083 -2.21929,5.77413 -1.17211,1.82619 1.92667,7.837237 2.20448,10.001587 0.54432,4.24046 -1.63958,6.14358 -0.90991,7.2503 1.75175,2.65692 -2.23704,4.47289 -2.90985,-0.0717 -0.0859,-0.58023 -0.68734,-0.54939 -1.0236,-2.19347 -0.49622,-2.4263 -0.53878,-4.92352 -1.00093,-6.31501 -0.20309,-0.61148 -1.11642,-2.86201 -1.71145,-2.39357 -2.81658,2.21734 -0.079,0.82145 0.0418,10.22877 0.013,1.0104 -0.31528,2.2171 -1.61025,2.14678 -1.68098,-0.0913 0.63505,-3.11852 -3.06102,-5.07444 -0.67872,-0.35918 -1.04279,-0.86044 -1.1363,-1.50973 -0.10548,-0.73242 -0.56329,-1.38067 -0.9213,-2.05061 -1.03892,-1.94415 -1.80253,-1.44623 3.44036,-9.987947 0.24316,-0.39617 0.42248,-4.03665 0.41387,-4.73914 -0.0105,-0.8546 -0.89129,-1.838242 -1.94097,-2.143884 -2.59996,-0.757155 -3.17245,-2.321215 -2.67762,-2.81736 2.25022,-2.25614 2.5426,-2.567042 3.14064,-2.7387 3.00007,-0.861118 3.66161,-3.191063 6.08225,-3.525553 2.0502,-0.283287 3.95833,0.779829 3.59968,4.378829 -0.24339,2.442472 -0.76864,2.567901 -0.10149,2.581303 1.94201,0.03901 5.03801,-0.759141 4.86841,-1.270905 -0.6848,-2.065782 -0.37172,-1.591413 -0.9866,-2.135559 -4.35351,-3.852796 -1.0296,-0.993648 2.8632,-12.329955 1.82883,-5.325891 0.31162,-7.618072 3.2216,-8.888709 5.3708,-2.345209 5.7742,-1.571486 5.7062,-2.468192 -0.0408,-0.537355 -0.0722,-2.2071 -0.62616,-2.88211 -0.55935,-0.681571 -2.41288,-7.111874 3.18391,-6.759587 5.57846,0.351114 1.57006,9.02379 2.97965,9.252234 2.03754,0.330234 4.07883,0.642675 6.13649,0.88769 1.99301,0.237322 9.10724,6.001583 12.22146,13.032588 0.16434,0.371082 0.48644,0.649197 0.78408,0.939316 0.82467,0.803742 1.23542,1.76021 1.69057,2.702291 0.13508,0.279616 -0.91101,1.566728 -1.246,1.885146 -0.51876,0.493118 -0.8027,0.378875 -1.13526,0.192313 -1.06731,-0.598613 -2.14677,-1.828684 -2.4584,-2.08144 -0.4817,-0.390689 -0.44608,-0.681578 -0.74672,-2.944146 -0.11595,-0.872431 -3.58106,-4.369868 -4.16326,-4.91963 -0.97612,-0.921743 -2.20871,-1.610519 -3.49547,-2.243048 -0.23472,-0.115379 -0.31776,-0.01168 -0.41052,0.12144 -1.28867,1.849968 -1.05505,2.685766 -1.32216,6.549391 -0.0427,0.617911 0.47783,2.780091 0.64282,3.509075 0.15682,0.692757 0.72572,1.552421 -0.51287,2.176672 -1.18702,0.598304 0.22054,0.658929 1.57988,10.84586 1.10543,8.28366 -0.12033,26.808907 -0.12033,26.808907 1.20749,1.39621 0.44568,2.38795 -0.81426,2.05668 -2.48084,-0.65237 -4.06883,-2.66314 -5.3497,-2.39127 -0.31221,0.0663 -0.45249,-10.6502 -0.58318,-12.81722 -0.35176,-5.835347 0.88342,-9.400167 -2.91952,-16.230163 -0.0368,-0.06602 -0.0513,-0.154999 -0.1784,-0.198829 -1.5959,1.672916 -4.71336,26.303622 -5.47708,27.082132 -0.21038,0.21446 -0.23779,0.18819 0.0741,2.29699 0.0703,0.47585 0.0911,0.48365 -0.45545,0.67378 -1.3727,0.47754 -2.76309,0.91355 -4.26394,1.08721 -1.05158,0.12167 -2.15862,-0.0857 -1.82612,-0.87027 0.34124,-0.80519 1.78559,-1.76488 1.85123,-4.85782 0.12085,-5.69774 0.0387,-13.0424 0.23587,-15.093147 1.05425,-10.96286 1.86006,-16.063117 2.03407,-19.356784 0.27045,-5.124624 0.47765,-4.985157 0.26763,-5.35832 z m -16.52946,13.967732 c 0.52779,-0.083 0.14128,-0.269105 -0.71104,-1.155304 -0.17597,-0.182987 -0.1138,-0.155451 -1.833,-0.117961 -1.30759,0.02852 -1.41971,0.889464 -0.96392,1.027938 1.42133,0.431794 2.23964,0.444839 3.50796,0.245327 z"
           inkscape:connector-curvature="0" />
        <path
           style="fill:#ff4f58;fill-opacity:1;stroke-width:0.0511711"
           id="path4"
           d="m 168.17712,52.795798 c -0.069,-0.402822 -1.52964,-1.376233 -1.38178,-1.510991 0.10935,-0.09966 0.2464,-0.0094 0.35448,0.05293 0.46262,0.266842 1.43221,0.830819 1.43221,0.830819 0.72631,0.416677 -0.49234,-0.999584 -0.28173,-1.493015 0.2128,0.09935 2.87862,2.770221 3.4802,2.005055 0.42781,-0.544189 0.16856,-0.623206 0.15058,-1.028336 -0.0156,-0.352604 0.33968,-0.317059 0.51582,-0.176824 0.39062,0.311083 0.62627,1.397337 1.2102,3.371326 0.12381,0.418536 6.64647,5.894806 6.98291,6.174737 2.14202,1.782133 5.6482,5.33857 12.18427,5.320591 0.41109,-7.94e-4 0.44111,-0.03154 0.43879,-0.405173 -0.002,-0.430262 0.13133,-0.400199 -2.09628,-0.370583 -0.19512,0.0026 -0.31991,-0.04854 -0.3893,-0.192039 -1.51298,-3.127937 -2.22212,-7.064558 1.9597,-7.792995 4.81277,-0.838386 8.11597,1.258999 6.42696,7.307809 -0.10646,0.381222 -0.0959,0.404857 -1.14648,0.307049 -0.5272,-0.04909 -0.48684,-0.03631 -0.48673,0.506517 0,0.502893 0.0677,0.540524 0.69184,0.440588 5.40244,-0.865008 10.32785,-4.745569 13.67928,-8.198809 5.85887,-6.036763 4.89153,-4.677646 5.23641,-6.157708 1.35148,-5.800394 1.22975,-1.564377 1.52901,-1.464714 0.14648,0.04877 2.06518,-1.492787 2.76651,-2.783395 0.0382,-0.07033 0.0675,-0.171569 0.1914,-0.150785 0.28538,0.04786 0.003,0.937639 0.23802,1.091959 0.52437,-0.436921 1.14179,-2.240429 0.80374,1.112422 -0.0631,0.625697 0.68166,-0.07037 0.92396,0.198831 0.18735,0.208157 -3.66219,2.514469 -3.90761,2.853171 -1.76187,2.431381 -3.85943,4.688605 -5.89547,6.978253 -6.00094,6.748449 -4.9375,5.946472 -7.86789,8.110557 -1.47378,1.08838 -1.10658,0.659295 -1.55838,1.502656 -1.24351,2.32139 -2.29695,5.044336 -1.94583,7.545677 0.53294,3.796645 -0.3362,4.068062 0.54491,11.110802 1.62379,12.97837 -0.13878,11.904993 1.55439,15.41926 0.32124,0.66677 4.31367,9.72818 3.63611,9.77677 -1.58088,0.11339 -1.62245,0.13218 -1.67553,0.32273 -0.10462,0.37546 -0.92866,-0.19322 -1.04662,0.5022 -0.10096,0.59514 -0.41716,1.43076 -1.22206,1.58829 -2.21651,0.43375 -3.97821,0.16442 -3.25497,-0.33245 0.79691,-0.54745 0.55023,-1.34653 0.79623,-2.02638 0.0836,-0.23098 -0.30354,-0.24385 -0.29203,-0.41541 0.0542,-0.8114 -1.1784,-0.17606 -1.38398,-0.9002 -0.73278,-2.58107 -5.59627,-18.703777 -6.70828,-21.259587 0,0 -0.48522,3.70328 -2.7868,16.851367 -0.92154,5.26377 -0.41306,3.95441 -1.68347,3.87712 -0.19343,-0.0118 -0.35898,-0.003 -0.26363,0.20775 0.0241,0.0533 0.0395,0.12761 -0.0238,0.14272 -0.31984,0.0765 -0.31088,0.299 -0.35482,0.48628 -0.15949,0.67967 -0.61696,1.27236 -0.89459,1.91717 -0.19569,0.45444 -0.56242,1.02122 -1.1599,0.92143 -1.91089,-0.31929 -2.14323,-0.44548 -2.19326,-0.645 -0.46822,-1.86762 -0.0823,-1.68871 0.1049,-2.19971 0.4588,-1.2523 -0.74678,-0.53899 -0.56624,-1.34218 0.19389,-0.86261 0.19111,-0.88593 -0.73504,-1.37873 -1.12555,-0.59888 -0.72041,0.0779 0.55519,-9.13667 1.08038,-7.804357 0.97045,-10.23461 1.47708,-12.100562 2.46707,-9.086586 6.54764,-10.902233 3.92831,-14.80806 -1.03771,-1.547391 -14.19313,-14.036879 -16.13149,-16.341739 -0.91656,-1.089829 -3.02106,-2.547705 -5.27944,-3.16009 -0.0579,-0.01567 -0.3476,-0.102832 -0.32406,-0.18452 0.0759,-0.263672 1.24935,0.204987 1.33454,0.04836 0.0612,-0.112749 -0.0695,-0.104646 -1.73285,-1.36636 -0.2471,-0.187422 -0.01,-0.302662 0.19759,-0.201413 0.34222,0.167223 0.68294,0.336394 1.02603,0.502532 0.10328,0.05012 0.21234,0.09273 0.31875,0.138695 z"
           inkscape:connector-curvature="0" />
        <path
           style="fill:#ff4f58;fill-opacity:1;stroke-width:0.0511711"
           id="path6"
           d="m 239.04348,80.207224 c 0.10356,0.380997 0.0985,0.200917 2.97988,0.180579 0.67073,-0.0048 0.76488,0.809725 0.33095,1.153994 -0.20807,0.165095 -0.53352,0.31833 -0.30047,0.645256 0.25727,0.360849 -2.97439,0.166136 -3.40591,0.47885 -6.6361,4.808335 -6.36508,4.348361 -5.74644,6.76978 0.0662,0.258826 0.0292,0.286314 -1.58255,0.81964 -0.45516,0.1506 -0.30163,-0.170538 -0.0494,5.29963 0.0494,1.07252 0.31065,1.21494 -0.24842,1.67232 -4.42661,3.621457 -1.17724,-2.83306 -0.88638,16.397387 0.014,0.92224 -0.62805,0.65336 -0.52975,1.14077 0.11617,0.57661 -0.10831,1.13384 -0.15862,1.7009 -0.0373,0.4194 -1.69936,0.58358 -2.2519,0.61302 -0.63107,0.0336 0.23414,-2.10631 -0.81403,-2.42337 -0.35431,-0.10718 -0.55584,-0.41346 -0.95253,-0.48939 -0.14312,-0.0274 -0.0971,-0.14685 -0.0956,-0.22831 0.07,-3.96148 -0.6272,-6.14422 -1.23646,-8.31183 -0.28203,-1.00357 -1.48385,2.95062 -1.65004,5.5422 -0.17325,2.70134 0.29099,2.86852 -0.58527,3.24019 -0.62124,0.26354 -0.48852,0.55329 -0.80402,0.60632 -0.93467,0.15712 -0.088,1.30559 -1.31053,1.50062 -0.84284,0.13444 -1.76154,0.72405 -1.78097,0.17216 -0.0207,-0.5859 -0.13734,-1.17089 0.0391,-1.7561 0.0654,-0.21695 0.019,-0.42963 -0.2955,-0.52472 -0.29636,-0.0896 -0.3281,-0.4021 -0.65651,-0.46731 -0.21187,-0.0421 0.2892,-8.99589 2.52636,-13.58858 0.36546,-0.750217 -0.47853,-5.690457 -1.82301,-8.639487 -0.26433,-0.57983 -0.81576,-0.68555 -1.3894,-0.83385 -0.42989,-0.11112 -0.38137,-0.17134 -0.38045,-1.416676 8.2e-4,-1.201899 -10.1454,-6.151909 -11.11818,-7.003827 -0.40212,-0.352293 1.33899,-0.01176 1.1211,-0.474734 -0.45216,-0.9606 -0.26809,-0.88855 0.23663,-1.768187 0.36176,-0.630543 1.30839,1.278922 1.62003,1.263795 0.19308,-0.0094 0.58642,-1.154438 0.67831,-0.58077 0.28525,1.780953 0.20268,1.842992 0.50042,2.026424 3.02228,1.861201 7.37336,4.398897 11.21083,4.341974 1.1389,-0.01692 0.57503,-0.311395 0.38252,-0.568138 -1.72435,-2.299971 -0.17753,-1.040069 -0.27323,-1.795453 -0.4396,-3.468494 2.15538,-4.490314 4.70093,-3.813542 1.91211,0.508419 1.99931,2.263569 1.63425,3.819747 -0.16146,0.688324 1.36426,-0.558359 -0.0803,1.91273 -0.11225,0.191988 -0.007,0.246598 0.21714,0.165 4.81855,-1.748849 8.46744,-3.306847 12.22747,-6.779012 z"
           inkscape:connector-curvature="0" />
      </g>
    </g>
  </g>
</svg>
