<svg width="1500" height="1500" version="1.1" viewBox="0 0 16 16" xmlns="http://www.w3.org/2000/svg">
 <title>photobooth</title>
 <g transform="translate(0 99.875)">
  <g>
   <path transform="matrix(.26458 0 0 .26458 0 -99.875)" d="m0 0v1500h1500v-1500zm750 133.13a225 225 0 0 1 225 225 225 225 0 0 1-225 225 225 225 0 0 1-225-225 225 225 0 0 1 225-225zm379.75 343.77a50 50 0 0 1 50 50 50 50 0 0 1-50 50 50 50 0 0 1-50-50 50 50 0 0 1 50-50zm-821.2 179.33h882.91c44.706 0 80.697 35.99 80.697 80.695v522.15c0 44.706-35.992 80.695-80.697 80.695h-882.91c-44.706 0-80.697-35.99-80.697-80.695v-522.15c0-44.706 35.992-80.695 80.697-80.695z" stroke-width="2">
    <title>booth</title>
   </path>
   <g transform="matrix(2 0 0 2 -168.3 .65626)" stroke-width=".051171">
    <path d="m155.07 73.738c-1.0793 2.6313-0.74389 1.9922-2.2944 3.9631-4.9997 6.3554-2.6636 2.6658-1.3866 9.6483 0.21888 1.1969-5.0166 3.0164-5.268 3.5854-1.3052 2.9533-1.0426 3.9408-2.2193 5.7741-1.1721 1.8262 1.9267 7.8372 2.2045 10.002 0.54432 4.2405-1.6396 6.1436-0.90991 7.2503 1.7518 2.6569-2.237 4.4729-2.9098-0.0717-0.0859-0.58023-0.68734-0.54939-1.0236-2.1935-0.49622-2.4263-0.53878-4.9235-1.0009-6.315-0.20309-0.61148-1.1164-2.862-1.7114-2.3936-2.8166 2.2173-0.079 0.82145 0.0418 10.229 0.013 1.0104-0.31528 2.2171-1.6102 2.1468-1.681-0.0913 0.63505-3.1185-3.061-5.0744-0.67872-0.35918-1.0428-0.86044-1.1363-1.5097-0.10548-0.73242-0.56329-1.3807-0.9213-2.0506-1.0389-1.9442-1.8025-1.4462 3.4404-9.9879 0.24316-0.39617 0.42248-4.0366 0.41387-4.7391-0.0105-0.8546-0.89129-1.8382-1.941-2.1439-2.6-0.75716-3.1724-2.3212-2.6776-2.8174 2.2502-2.2561 2.5426-2.567 3.1406-2.7387 3.0001-0.86112 3.6616-3.1911 6.0822-3.5256 2.0502-0.28329 3.9583 0.77983 3.5997 4.3788-0.24339 2.4425-0.76864 2.5679-0.10149 2.5813 1.942 0.03901 5.038-0.75914 4.8684-1.2709-0.6848-2.0658-0.37172-1.5914-0.9866-2.1356-4.3535-3.8528-1.0296-0.99365 2.8632-12.33 1.8288-5.3259 0.31162-7.6181 3.2216-8.8887 5.3708-2.3452 5.7742-1.5715 5.7062-2.4682-0.0408-0.53736-0.0722-2.2071-0.62616-2.8821-0.55935-0.68157-2.4129-7.1119 3.1839-6.7596 5.5785 0.35111 1.5701 9.0238 2.9796 9.2522 2.0375 0.33023 4.0788 0.64268 6.1365 0.88769 1.993 0.23732 9.1072 6.0016 12.221 13.033 0.16434 0.37108 0.48644 0.6492 0.78408 0.93932 0.82467 0.80374 1.2354 1.7602 1.6906 2.7023 0.13508 0.27962-0.91101 1.5667-1.246 1.8851-0.51876 0.49312-0.8027 0.37888-1.1353 0.19231-1.0673-0.59861-2.1468-1.8287-2.4584-2.0814-0.4817-0.39069-0.44608-0.68158-0.74672-2.9441-0.11595-0.87243-3.5811-4.3699-4.1633-4.9196-0.97612-0.92174-2.2087-1.6105-3.4955-2.243-0.23472-0.11538-0.31776-0.01168-0.41052 0.12144-1.2887 1.85-1.055 2.6858-1.3222 6.5494-0.0427 0.61791 0.47783 2.7801 0.64282 3.5091 0.15682 0.69276 0.72572 1.5524-0.51287 2.1767-1.187 0.5983 0.22054 0.65893 1.5799 10.846 1.1054 8.2837-0.12033 26.809-0.12033 26.809 1.2075 1.3962 0.44568 2.388-0.81426 2.0567-2.4808-0.65237-4.0688-2.6631-5.3497-2.3913-0.31221 0.0663-0.45249-10.65-0.58318-12.817-0.35176-5.8353 0.88342-9.4002-2.9195-16.23-0.0368-0.06602-0.0513-0.155-0.1784-0.19883-1.5959 1.6729-4.7134 26.304-5.4771 27.082-0.21038 0.21446-0.23779 0.18819 0.0741 2.297 0.0703 0.47585 0.0911 0.48365-0.45545 0.67378-1.3727 0.47754-2.7631 0.91355-4.2639 1.0872-1.0516 0.12167-2.1586-0.0857-1.8261-0.87027 0.34124-0.80519 1.7856-1.7649 1.8512-4.8578 0.12085-5.6977 0.0387-13.042 0.23587-15.093 1.0542-10.963 1.8601-16.063 2.0341-19.357 0.27045-5.1246 0.47765-4.9852 0.26763-5.3583zm-16.529 13.968c0.52779-0.083 0.14128-0.2691-0.71104-1.1553-0.17597-0.18299-0.1138-0.15545-1.833-0.11796-1.3076 0.02852-1.4197 0.88946-0.96392 1.0279 1.4213 0.43179 2.2396 0.44484 3.508 0.24533z"/>
    <path d="m168.18 52.796c-0.069-0.40282-1.5296-1.3762-1.3818-1.511 0.10935-0.09966 0.2464-0.0094 0.35448 0.05293 0.46262 0.26684 1.4322 0.83082 1.4322 0.83082 0.72631 0.41668-0.49234-0.99958-0.28173-1.493 0.2128 0.09935 2.8786 2.7702 3.4802 2.0051 0.42781-0.54419 0.16856-0.62321 0.15058-1.0283-0.0156-0.3526 0.33968-0.31706 0.51582-0.17682 0.39062 0.31108 0.62627 1.3973 1.2102 3.3713 0.12381 0.41854 6.6465 5.8948 6.9829 6.1747 2.142 1.7821 5.6482 5.3386 12.184 5.3206 0.41109-7.94e-4 0.44111-0.03154 0.43879-0.40517-2e-3 -0.43026 0.13133-0.4002-2.0963-0.37058-0.19512 0.0026-0.31991-0.04854-0.3893-0.19204-1.513-3.1279-2.2221-7.0646 1.9597-7.793 4.8128-0.83839 8.116 1.259 6.427 7.3078-0.10646 0.38122-0.0959 0.40486-1.1465 0.30705-0.5272-0.04909-0.48684-0.03631-0.48673 0.50652 0 0.50289 0.0677 0.54052 0.69184 0.44059 5.4024-0.86501 10.328-4.7456 13.679-8.1988 5.8589-6.0368 4.8915-4.6776 5.2364-6.1577 1.3515-5.8004 1.2298-1.5644 1.529-1.4647 0.14648 0.04877 2.0652-1.4928 2.7665-2.7834 0.0382-0.07033 0.0675-0.17157 0.1914-0.15078 0.28538 0.04786 3e-3 0.93764 0.23802 1.092 0.52437-0.43692 1.1418-2.2404 0.80374 1.1124-0.0631 0.6257 0.68166-0.07037 0.92396 0.19883 0.18735 0.20816-3.6622 2.5145-3.9076 2.8532-1.7619 2.4314-3.8594 4.6886-5.8955 6.9783-6.0009 6.7484-4.9375 5.9465-7.8679 8.1106-1.4738 1.0884-1.1066 0.6593-1.5584 1.5027-1.2435 2.3214-2.297 5.0443-1.9458 7.5457 0.53294 3.7966-0.3362 4.0681 0.54491 11.111 1.6238 12.978-0.13878 11.905 1.5544 15.419 0.32124 0.66677 4.3137 9.7282 3.6361 9.7768-1.5809 0.11339-1.6224 0.13218-1.6755 0.32273-0.10462 0.37546-0.92866-0.19322-1.0466 0.5022-0.10096 0.59514-0.41716 1.4308-1.2221 1.5883-2.2165 0.43375-3.9782 0.16442-3.255-0.33245 0.79691-0.54745 0.55023-1.3465 0.79623-2.0264 0.0836-0.23098-0.30354-0.24385-0.29203-0.41541 0.0542-0.8114-1.1784-0.17606-1.384-0.9002-0.73278-2.5811-5.5963-18.704-6.7083-21.26 0 0-0.48522 3.7033-2.7868 16.851-0.92154 5.2638-0.41306 3.9544-1.6835 3.8771-0.19343-0.0118-0.35898-3e-3 -0.26363 0.20775 0.0241 0.0533 0.0395 0.12761-0.0238 0.14272-0.31984 0.0765-0.31088 0.299-0.35482 0.48628-0.15949 0.67967-0.61696 1.2724-0.89459 1.9172-0.19569 0.45444-0.56242 1.0212-1.1599 0.92143-1.9109-0.31929-2.1432-0.44548-2.1933-0.645-0.46822-1.8676-0.0823-1.6887 0.1049-2.1997 0.4588-1.2523-0.74678-0.53899-0.56624-1.3422 0.19389-0.86261 0.19111-0.88593-0.73504-1.3787-1.1256-0.59888-0.72041 0.0779 0.55519-9.1367 1.0804-7.8044 0.97045-10.235 1.4771-12.101 2.4671-9.0866 6.5476-10.902 3.9283-14.808-1.0377-1.5474-14.193-14.037-16.131-16.342-0.91656-1.0898-3.0211-2.5477-5.2794-3.1601-0.0579-0.01567-0.3476-0.10283-0.32406-0.18452 0.0759-0.26367 1.2494 0.20499 1.3345 0.04836 0.0612-0.11275-0.0695-0.10465-1.7328-1.3664-0.2471-0.18742-0.01-0.30266 0.19759-0.20141 0.34222 0.16722 0.68294 0.33639 1.026 0.50253 0.10328 0.05012 0.21234 0.09273 0.31875 0.1387z"/>
    <path d="m239.04 80.207c0.10356 0.381 0.0985 0.20092 2.9799 0.18058 0.67073-0.0048 0.76488 0.80972 0.33095 1.154-0.20807 0.1651-0.53352 0.31833-0.30047 0.64526 0.25727 0.36085-2.9744 0.16614-3.4059 0.47885-6.6361 4.8083-6.3651 4.3484-5.7464 6.7698 0.0662 0.25883 0.0292 0.28631-1.5826 0.81964-0.45516 0.1506-0.30163-0.17054-0.0494 5.2996 0.0494 1.0725 0.31065 1.2149-0.24842 1.6723-4.4266 3.6215-1.1772-2.8331-0.88638 16.397 0.014 0.92224-0.62805 0.65336-0.52975 1.1408 0.11617 0.57661-0.10831 1.1338-0.15862 1.7009-0.0373 0.4194-1.6994 0.58358-2.2519 0.61302-0.63107 0.0336 0.23414-2.1063-0.81403-2.4234-0.35431-0.10718-0.55584-0.41346-0.95253-0.48939-0.14312-0.0274-0.0971-0.14685-0.0956-0.22831 0.07-3.9615-0.6272-6.1442-1.2365-8.3118-0.28203-1.0036-1.4838 2.9506-1.65 5.5422-0.17325 2.7013 0.29099 2.8685-0.58527 3.2402-0.62124 0.26354-0.48852 0.55329-0.80402 0.60632-0.93467 0.15712-0.088 1.3056-1.3105 1.5006-0.84284 0.13444-1.7615 0.72405-1.781 0.17216-0.0207-0.5859-0.13734-1.1709 0.0391-1.7561 0.0654-0.21695 0.019-0.42963-0.2955-0.52472-0.29636-0.0896-0.3281-0.4021-0.65651-0.46731-0.21187-0.0421 0.2892-8.9959 2.5264-13.589 0.36546-0.75022-0.47853-5.6905-1.823-8.6395-0.26433-0.57983-0.81576-0.68555-1.3894-0.83385-0.42989-0.11112-0.38137-0.17134-0.38045-1.4167 8.2e-4 -1.2019-10.145-6.1519-11.118-7.0038-0.40212-0.35229 1.339-0.01176 1.1211-0.47473-0.45216-0.9606-0.26809-0.88855 0.23663-1.7682 0.36176-0.63054 1.3084 1.2789 1.62 1.2638 0.19308-0.0094 0.58642-1.1544 0.67831-0.58077 0.28525 1.781 0.20268 1.843 0.50042 2.0264 3.0223 1.8612 7.3734 4.3989 11.211 4.342 1.1389-0.01692 0.57503-0.3114 0.38252-0.56814-1.7244-2.3-0.17753-1.0401-0.27323-1.7955-0.4396-3.4685 2.1554-4.4903 4.7009-3.8135 1.9121 0.50842 1.9993 2.2636 1.6342 3.8197-0.16146 0.68832 1.3643-0.55836-0.0803 1.9127-0.11225 0.19199-7e-3 0.2466 0.21714 0.165 4.8186-1.7488 8.4674-3.3068 12.227-6.779z"/>
   </g>
  </g>
 </g>
</svg>
